<svg id="visual" viewBox="0 0 900 600" width="900" height="600" xmlns="http://www.w3.org/2000/svg" xmlns:xlink="http://www.w3.org/1999/xlink" version="1.1"><rect x="0" y="0" width="900" height="600" fill="#ebebeb"></rect><path d="M0 360L18.8 365.2C37.7 370.3 75.3 380.7 112.8 386C150.3 391.3 187.7 391.7 225.2 390.7C262.7 389.7 300.3 387.3 337.8 382.2C375.3 377 412.7 369 450.2 369.5C487.7 370 525.3 379 562.8 379.3C600.3 379.7 637.7 371.3 675.2 368.2C712.7 365 750.3 367 787.8 370C825.3 373 862.7 377 881.3 379L900 381L900 601L881.3 601C862.7 601 825.3 601 787.8 601C750.3 601 712.7 601 675.2 601C637.7 601 600.3 601 562.8 601C525.3 601 487.7 601 450.2 601C412.7 601 375.3 601 337.8 601C300.3 601 262.7 601 225.2 601C187.7 601 150.3 601 112.8 601C75.3 601 37.7 601 18.8 601L0 601Z" fill="#ebebeb"></path><path d="M0 397L18.8 400.2C37.7 403.3 75.3 409.7 112.8 412.3C150.3 415 187.7 414 225.2 417.3C262.7 420.7 300.3 428.3 337.8 431.8C375.3 435.3 412.7 434.7 450.2 432.5C487.7 430.3 525.3 426.7 562.8 423.5C600.3 420.3 637.7 417.7 675.2 420C712.7 422.3 750.3 429.7 787.8 432C825.3 434.3 862.7 431.7 881.3 430.3L900 429L900 601L881.3 601C862.7 601 825.3 601 787.8 601C750.3 601 712.7 601 675.2 601C637.7 601 600.3 601 562.8 601C525.3 601 487.7 601 450.2 601C412.7 601 375.3 601 337.8 601C300.3 601 262.7 601 225.2 601C187.7 601 150.3 601 112.8 601C75.3 601 37.7 601 18.8 601L0 601Z" fill="#dde2e4"></path><path d="M0 467L18.8 467.3C37.7 467.7 75.3 468.3 112.8 468.5C150.3 468.7 187.7 468.3 225.2 461C262.7 453.7 300.3 439.3 337.8 434.8C375.3 430.3 412.7 435.7 450.2 442.5C487.7 449.3 525.3 457.7 562.8 460.3C600.3 463 637.7 460 675.2 460.5C712.7 461 750.3 465 787.8 465.7C825.3 466.3 862.7 463.7 881.3 462.3L900 461L900 601L881.3 601C862.7 601 825.3 601 787.8 601C750.3 601 712.7 601 675.2 601C637.7 601 600.3 601 562.8 601C525.3 601 487.7 601 450.2 601C412.7 601 375.3 601 337.8 601C300.3 601 262.7 601 225.2 601C187.7 601 150.3 601 112.8 601C75.3 601 37.7 601 18.8 601L0 601Z" fill="#d0d9dd"></path><path d="M0 473L18.8 477.7C37.7 482.3 75.3 491.7 112.8 490.7C150.3 489.7 187.7 478.3 225.2 474.5C262.7 470.7 300.3 474.3 337.8 479.2C375.3 484 412.7 490 450.2 494.2C487.7 498.3 525.3 500.7 562.8 497.8C600.3 495 637.7 487 675.2 485.3C712.7 483.7 750.3 488.3 787.8 485.5C825.3 482.7 862.7 472.3 881.3 467.2L900 462L900 601L881.3 601C862.7 601 825.3 601 787.8 601C750.3 601 712.7 601 675.2 601C637.7 601 600.3 601 562.8 601C525.3 601 487.7 601 450.2 601C412.7 601 375.3 601 337.8 601C300.3 601 262.7 601 225.2 601C187.7 601 150.3 601 112.8 601C75.3 601 37.7 601 18.8 601L0 601Z" fill="#c2d1d5"></path><path d="M0 522L18.8 522.3C37.7 522.7 75.3 523.3 112.8 525.3C150.3 527.3 187.7 530.7 225.2 528.5C262.7 526.3 300.3 518.7 337.8 518.7C375.3 518.7 412.7 526.3 450.2 530.7C487.7 535 525.3 536 562.8 536.8C600.3 537.7 637.7 538.3 675.2 538.3C712.7 538.3 750.3 537.7 787.8 536.8C825.3 536 862.7 535 881.3 534.5L900 534L900 601L881.3 601C862.7 601 825.3 601 787.8 601C750.3 601 712.7 601 675.2 601C637.7 601 600.3 601 562.8 601C525.3 601 487.7 601 450.2 601C412.7 601 375.3 601 337.8 601C300.3 601 262.7 601 225.2 601C187.7 601 150.3 601 112.8 601C75.3 601 37.7 601 18.8 601L0 601Z" fill="#b5c8ce"></path><path d="M0 561L18.8 558.3C37.7 555.7 75.3 550.3 112.8 550.2C150.3 550 187.7 555 225.2 557.7C262.7 560.3 300.3 560.7 337.8 559.7C375.3 558.7 412.7 556.3 450.2 554.3C487.7 552.3 525.3 550.7 562.8 549.7C600.3 548.7 637.7 548.3 675.2 548.7C712.7 549 750.3 550 787.8 549.5C825.3 549 862.7 547 881.3 546L900 545L900 601L881.3 601C862.7 601 825.3 601 787.8 601C750.3 601 712.7 601 675.2 601C637.7 601 600.3 601 562.8 601C525.3 601 487.7 601 450.2 601C412.7 601 375.3 601 337.8 601C300.3 601 262.7 601 225.2 601C187.7 601 150.3 601 112.8 601C75.3 601 37.7 601 18.8 601L0 601Z" fill="#a8bfc7"></path></svg>